<svg viewBox="0 0 100 100" fill="none" xmlns="http://www.w3.org/2000/svg">
  <path d="M25 35 L32 20 L42 28 L50 12 L58 28 L68 20 L75 35 Z" fill="#D4AF37" />
  <circle cx="50" cy="22" r="2" fill="white" />
  
  <path d="M20 50 C20 70 45 85 50 90 C50 90 40 75 40 60 C30 55 20 50 20 50 Z" fill="#0B3D91" />
  <path d="M80 50 C80 70 55 85 50 90 C50 90 60 75 60 60 C70 55 80 50 80 50 Z" fill="#0B3D91" />
  
  <circle cx="43" cy="40" r="7" fill="#0B3D91" />
  <circle cx="57" cy="46" r="5" fill="#0B3D91" />
  
  <path d="M30 65 C30 50 45 45 45 45 C45 45 50 55 60 55 C70 55 70 65 70 65 C70 65 50 75 30 65 Z" fill="#0B3D91" />
  
  <path d="M50 55 C55 55 58 60 50 75 C42 60 45 55 50 55 Z" fill="#D4AF37" />
  <circle cx="50" cy="62" r="2.5" fill="white" />
</svg>